<?xml version="1.0" encoding="UTF-8" standalone="no"?>
<svg width="368px" height="297px" viewBox="0 0 368 297" version="1.1" xmlns="http://www.w3.org/2000/svg" xmlns:xlink="http://www.w3.org/1999/xlink" xmlns:sketch="http://www.bohemiancoding.com/sketch/ns">
    <!-- Generator: Sketch 3.3.2 (12043) - http://www.bohemiancoding.com/sketch -->
    <title>Imported Layers</title>
    <desc>Created with Sketch.</desc>
    <defs></defs>
    <g id="Page-1" stroke="none" stroke-width="1" fill="none" fill-rule="evenodd" sketch:type="MSPage">
        <g id="Página-404" sketch:type="MSArtboardGroup" transform="translate(-909.000000, -159.000000)" fill="#CFCFCF">
            <g id="Imported-Layers" sketch:type="MSLayerGroup" transform="translate(909.000000, 159.000000)">
                <path d="M357.39,273.099 L223.655,273.099 C223.336,277.76 219.433,281.478 214.694,281.478 L153.306,281.478 C148.567,281.478 144.664,277.76 144.345,273.099 L10.61,273.099 C4.775,273.099 0,277.873 0,283.709 L0,286.321 C0,292.156 4.775,296.931 10.61,296.931 L357.39,296.931 C363.226,296.931 368,292.156 368,286.321 L368,283.709 C368,277.873 363.226,273.099 357.39,273.099" id="Fill-1" sketch:type="MSShapeGroup"></path>
                <path d="M84.179,147.343 L77.851,158.302 C77.058,159.675 77.272,161.406 78.377,162.543 L78.381,162.547 C82.53,166.818 84.791,172.585 84.606,178.536 C84.592,178.992 84.585,179.45 84.585,179.908 C84.585,180.366 84.592,180.823 84.606,181.28 C84.791,187.231 82.53,192.998 78.381,197.269 L78.377,197.272 C77.272,198.41 77.058,200.141 77.851,201.514 L84.179,212.473 C84.82,213.589 86.001,214.244 87.247,214.244 C87.534,214.244 87.824,214.209 88.114,214.136 L88.115,214.136 C93.893,212.677 100.024,213.604 105.086,216.749 C105.862,217.231 106.653,217.688 107.458,218.12 C112.703,220.935 116.566,225.776 118.19,231.503 C118.623,233.028 120.015,234.079 121.6,234.079 L134.254,234.079 C135.839,234.079 137.231,233.028 137.664,231.503 C139.288,225.776 143.151,220.935 148.396,218.12 C149.201,217.688 149.992,217.231 150.769,216.749 C155.83,213.604 161.961,212.677 167.739,214.136 L167.74,214.136 C168.03,214.209 168.32,214.244 168.61,214.244 C169.853,214.244 171.034,213.589 171.679,212.473 L178.006,201.514 C178.797,200.141 178.583,198.41 177.478,197.272 L177.476,197.271 C173.326,193 171.065,187.231 171.251,181.279 C171.265,180.823 171.272,180.366 171.272,179.908 C171.272,179.45 171.265,178.993 171.251,178.537 C171.065,172.585 173.326,166.816 177.476,162.545 L177.478,162.543 C178.583,161.406 178.797,159.675 178.006,158.302 L171.679,147.343 C171.034,146.227 169.853,145.572 168.61,145.572 C168.32,145.572 168.03,145.607 167.74,145.68 L167.739,145.68 C161.961,147.138 155.83,146.212 150.769,143.067 C149.992,142.585 149.201,142.128 148.396,141.696 C143.151,138.881 139.288,134.04 137.664,128.313 C137.231,126.79 135.839,125.737 134.254,125.737 L121.6,125.737 C120.015,125.737 118.623,126.79 118.19,128.313 C116.566,134.04 112.703,138.881 107.458,141.696 C106.653,142.128 105.862,142.585 105.086,143.067 C100.024,146.212 93.893,147.138 88.115,145.68 L88.114,145.68 C87.824,145.607 87.534,145.572 87.247,145.572 C86.001,145.572 84.82,146.227 84.179,147.343 L84.179,147.343 Z M99.871,178.977 C100.349,164.268 112.287,152.33 126.997,151.852 C143.21,151.325 156.51,164.625 155.984,180.839 C155.505,195.548 143.567,207.486 128.858,207.964 C112.644,208.491 99.344,195.191 99.871,178.977 L99.871,178.977 Z" id="Fill-2" sketch:type="MSShapeGroup"></path>
                <path d="M166.025,100.829 C165.589,100.927 165.178,101.076 164.795,101.271 C163.132,102.114 162,103.788 161.899,105.711 L160.87,124.617 C160.741,126.986 162.197,129.151 164.442,129.922 L164.449,129.924 C172.876,132.815 179.796,138.981 183.576,147.048 C183.866,147.667 184.166,148.282 184.476,148.894 C184.786,149.505 185.105,150.111 185.433,150.711 C189.707,158.527 190.591,167.753 187.944,176.259 L187.941,176.267 C187.236,178.533 188.122,180.987 190.11,182.283 L205.969,192.626 C207.581,193.681 209.6,193.756 211.263,192.913 C211.646,192.719 212.009,192.476 212.346,192.182 L212.348,192.181 C219.071,186.326 227.88,183.414 236.763,184.185 C238.125,184.303 239.49,184.378 240.857,184.41 C249.761,184.617 258.192,188.464 264.234,195.008 C265.844,196.749 268.413,197.21 270.527,196.138 L287.414,187.575 C289.529,186.503 290.676,184.158 290.222,181.83 C288.514,173.089 290.393,164.014 295.488,156.709 C296.269,155.588 297.016,154.442 297.726,153.273 C302.353,145.652 309.907,140.267 318.604,138.303 L318.606,138.303 C319.042,138.204 319.453,138.055 319.84,137.859 C321.499,137.018 322.631,135.344 322.736,133.419 L323.765,114.513 C323.891,112.145 322.434,109.98 320.19,109.21 L320.187,109.209 C311.759,106.317 304.837,100.15 301.058,92.08 C300.768,91.461 300.468,90.847 300.159,90.236 C299.849,89.625 299.53,89.02 299.203,88.421 C294.926,80.604 294.041,71.375 296.689,62.867 L296.69,62.865 C297.395,60.599 296.509,58.144 294.525,56.847 L278.666,46.504 C277.05,45.451 275.031,45.375 273.372,46.216 C272.985,46.412 272.622,46.655 272.285,46.949 L272.283,46.951 C265.56,52.806 256.751,55.718 247.869,54.947 C246.506,54.828 245.141,54.753 243.775,54.722 C234.87,54.515 226.44,50.668 220.397,44.124 C218.789,42.386 216.218,41.922 214.104,42.994 L197.217,51.557 C195.102,52.629 193.957,54.977 194.409,57.302 C196.117,66.043 194.239,75.117 189.144,82.423 C188.362,83.544 187.615,84.689 186.906,85.858 C182.279,93.479 174.724,98.865 166.027,100.828 L166.025,100.829 L166.025,100.829 Z M222.089,82.755 C243.369,71.081 270.118,79.83 280.386,101.823 C289.701,121.776 281.848,145.785 262.542,156.377 C241.262,168.051 214.513,159.302 204.245,137.308 C194.93,117.355 202.783,93.346 222.089,82.755 L222.089,82.755 Z" id="Fill-3" sketch:type="MSShapeGroup"></path>
                <path d="M29.333,262.007 L338.667,262.007 C344.503,262.007 349.277,257.232 349.277,251.397 L349.277,71.672 C349.277,65.836 344.503,61.062 338.667,61.062 L312.947,61.062 L312.947,77.901 L332.699,77.901 L332.699,245.69 L35.301,245.69 L35.301,77.901 L87.705,77.901 L87.705,61.062 L29.333,61.062 C23.498,61.062 18.723,65.836 18.723,71.672 L18.723,251.397 C18.723,257.232 23.498,262.007 29.333,262.007" id="Fill-4" sketch:type="MSShapeGroup"></path>
                <path d="M180.443,68.387 C177.187,65.096 175.387,60.629 175.488,56.001 C175.504,55.291 175.497,54.58 175.467,53.87 C175.275,49.24 176.993,44.735 180.19,41.381 L180.191,41.38 C180.352,41.212 180.486,41.029 180.597,40.833 C181.073,39.991 181.081,38.941 180.572,38.078 L175.573,29.601 C174.946,28.541 173.693,28.023 172.5,28.336 L172.498,28.337 C168.019,29.512 163.248,28.836 159.289,26.433 C158.986,26.249 158.679,26.069 158.369,25.894 C158.121,25.754 157.87,25.619 157.619,25.486 L151.94,35.921 C152.347,36.135 152.752,36.358 153.15,36.601 C162.926,42.552 166.441,55.202 161.137,65.344 C155.409,76.298 141.763,80.271 131.078,74.254 L125.398,84.69 C125.645,84.827 125.892,84.964 126.142,85.095 C130.242,87.246 133.281,90.983 134.585,95.426 L134.586,95.43 C134.933,96.614 136.023,97.421 137.256,97.409 L142.176,97.363 L147.097,97.318 C148.098,97.31 148.993,96.761 149.47,95.918 C149.58,95.723 149.667,95.514 149.728,95.289 L149.728,95.288 C150.952,90.819 153.925,87.023 157.99,84.799 C158.613,84.458 159.226,84.097 159.826,83.717 C163.739,81.243 168.494,80.48 172.993,81.572 C174.191,81.862 175.435,81.321 176.041,80.248 L180.882,71.681 C181.489,70.608 181.31,69.264 180.443,68.387" id="Fill-5" sketch:type="MSShapeGroup"></path>
                <path d="M139.089,60.92 C129.313,54.969 125.798,42.319 131.102,32.177 C136.732,21.412 150.009,17.387 160.607,22.962 L166.286,12.527 C166.224,12.494 166.162,12.458 166.099,12.425 C161.998,10.274 158.958,6.536 157.654,2.092 L157.654,2.091 C157.306,0.908 156.216,0.1 154.984,0.111 L150.064,0.156 L145.144,0.202 C144.142,0.211 143.246,0.76 142.771,1.602 C142.66,1.798 142.573,2.007 142.511,2.232 L142.511,2.233 C141.288,6.702 138.315,10.499 134.249,12.722 C133.626,13.064 133.014,13.424 132.413,13.804 C128.501,16.278 123.745,17.041 119.247,15.949 C118.051,15.661 116.805,16.2 116.198,17.273 L111.357,25.84 C110.751,26.913 110.931,28.259 111.796,29.134 C115.052,32.425 116.852,36.892 116.751,41.52 C116.736,42.23 116.743,42.941 116.772,43.651 C116.965,48.281 115.246,52.786 112.049,56.14 L112.048,56.141 C111.888,56.309 111.753,56.492 111.643,56.686 C111.167,57.53 111.158,58.58 111.668,59.441 L116.667,67.918 C117.293,68.98 118.547,69.498 119.74,69.185 L119.744,69.184 C124.222,68.008 128.992,68.684 132.95,71.086 C133.254,71.27 133.561,71.45 133.871,71.625 C133.935,71.661 134.001,71.695 134.065,71.731 L139.744,61.296 C139.525,61.172 139.306,61.052 139.089,60.92" id="Fill-6" sketch:type="MSShapeGroup"></path>
            </g>
        </g>
    </g>
</svg>